<svg width="23" height="20" viewBox="0 0 23 20" fill="none" xmlns="http://www.w3.org/2000/svg">
<path d="M11.25 19.1C16.2758 19.1 20.35 15.0258 20.35 10C20.35 4.97422 16.2758 0.900009 11.25 0.900009C6.22417 0.900009 2.14996 4.97422 2.14996 10C2.14996 15.0258 6.22417 19.1 11.25 19.1Z" stroke="#CCCCCC" stroke-width="2"/>
<path d="M10.75 0.800003V19.2M2.04999 10H20.45M4.84999 3.6C4.84999 4.6 7.74999 5.4 11.25 5.4C14.75 5.4 17.65 4.6 17.65 3.6M4.84999 16.4C4.84999 15.4 7.74999 14.6 11.25 14.6C14.75 14.6 17.65 15.4 17.65 16.4" stroke="#CCCCCC"/>
<path d="M15.85 10C15.85 4.91899 13.7905 0.800013 11.25 0.800013C8.70945 0.800013 6.64996 4.91899 6.64996 10C6.64996 15.081 8.70945 19.2 11.25 19.2C13.7905 19.2 15.85 15.081 15.85 10Z" stroke="#CCCCCC"/>
</svg>
