<svg width="112" height="35" viewBox="0 0 112 35" fill="none" xmlns="http://www.w3.org/2000/svg">
<g clip-path="url(#clip0_1_22)">
<path fill-rule="evenodd" clip-rule="evenodd" d="M27.1902 21.871C27.2276 21.6288 27.4192 21.4443 27.6853 21.4443C27.8094 21.4443 27.95 21.4848 28.0983 21.5774C36.3221 26.7349 46.4959 29.842 57.0021 29.842C64.0922 29.842 71.882 28.2553 79.0509 24.9774C80.1314 24.4851 81.0366 25.7444 79.9796 26.5902C73.5845 31.6745 64.3131 34.3797 56.3296 34.3797C45.1419 34.3797 35.0674 29.9211 27.4407 22.5006C27.2911 22.3553 27.2124 22.1959 27.1902 22.0462V21.871Z" fill="white"/>
<path fill-rule="evenodd" clip-rule="evenodd" d="M74.7045 22.6725C76.5954 21.2447 79.1096 20.7683 81.1943 20.7683C83.1442 20.7683 84.7191 21.1858 85.0544 21.6321C85.7591 22.5634 84.873 29.0201 81.4408 32.0995C80.9156 32.5764 80.416 32.3195 80.6476 31.6972C81.4193 29.6319 83.1464 24.9947 82.3278 23.8704C81.5104 22.7436 76.9208 23.3334 74.8626 23.5993C74.5437 23.6398 74.3623 23.5093 74.3358 23.3149V23.21C74.3573 23.0415 74.4769 22.8447 74.7045 22.6725ZM106.639 4.70329C108.32 4.70329 109.634 5.21285 110.58 6.23198C111.527 7.25088 112 8.66544 112 10.4757C112 12.2999 111.527 13.7215 110.58 14.7407C109.634 15.7598 108.32 16.2694 106.639 16.2694C104.958 16.2694 103.644 15.7598 102.698 14.7407C101.751 13.7215 101.278 12.2999 101.278 10.4757C101.278 8.66544 101.751 7.25088 102.698 6.23198C103.644 5.21285 104.958 4.70329 106.639 4.70329ZM106.639 7.09767C105.156 7.09767 104.414 8.22359 104.414 10.4757C104.414 12.7417 105.156 13.8747 106.639 13.8747C108.122 13.8747 108.864 12.7417 108.864 10.4757C108.864 8.22359 108.122 7.09767 106.639 7.09767ZM95.4702 4.8044C96.7564 4.8044 97.7632 5.11885 98.4885 5.74775C99.214 6.3769 99.5775 7.21607 99.5775 8.26385C99.5775 9.31329 99.1861 10.1065 98.4066 10.6438C97.6252 11.1825 96.4734 11.4512 94.9528 11.4512C94.1645 11.4512 93.4793 11.3752 92.8991 11.2215C92.9813 12.1578 93.2626 12.8293 93.7397 13.234C94.2169 13.6384 94.9388 13.8416 95.907 13.8416C96.2932 13.8416 96.6709 13.817 97.0379 13.7675C97.4033 13.7196 97.9119 13.6102 98.5621 13.444C98.6021 13.4301 98.6441 13.4194 98.6862 13.4123C98.7281 13.4052 98.7613 13.4016 98.7892 13.4016C99.0253 13.4016 99.1423 13.5624 99.1423 13.884V14.8489C99.1423 15.0715 99.1108 15.2287 99.0497 15.3206C98.9867 15.4105 98.8662 15.492 98.6862 15.5609C97.6758 15.9514 96.6044 16.1474 95.4702 16.1474C93.7556 16.1474 92.4393 15.6738 91.5201 14.7215C90.6007 13.771 90.141 12.4088 90.141 10.6331C90.141 8.81674 90.6111 7.39105 91.5513 6.35724C92.4919 5.32201 93.7975 4.8044 95.4702 4.8044ZM95.2428 6.92269C93.9145 6.92269 93.1473 7.74789 92.941 9.3964C93.4932 9.50934 94.1086 9.56428 94.7868 9.56428C95.491 9.56428 96.0032 9.4563 96.3212 9.23917C96.6394 9.02346 96.7985 8.69125 96.7985 8.24443C96.7985 7.36264 96.2793 6.92269 95.2428 6.92269ZM87.3905 0.128338C87.5883 0.128338 87.7261 0.167408 87.8037 0.245784C87.8814 0.324161 87.9202 0.463154 87.9202 0.662765V15.4141C87.9202 15.5995 87.8814 15.7347 87.8037 15.8204C87.7261 15.9059 87.5883 15.9485 87.3905 15.9485H85.6954C85.5258 15.9485 85.3951 15.913 85.3033 15.8417C85.2116 15.7705 85.1444 15.6492 85.102 15.4783L84.9748 14.9865C84.099 15.7847 83.0609 16.1836 81.8599 16.1836C80.9419 16.1836 80.1437 15.945 79.4655 15.4676C78.7874 14.99 78.2683 14.3275 77.9082 13.4793C77.5478 12.6314 77.3678 11.6516 77.3678 10.5398C77.3678 8.77247 77.7843 7.3579 78.6178 6.29615C79.4513 5.23416 80.5533 4.70329 81.9236 4.70329C83.0396 4.70329 84.0073 5.0239 84.8266 5.66535V0.662765C84.8266 0.463154 84.869 0.324161 84.9538 0.245784C85.0385 0.167408 85.1728 0.128338 85.3563 0.128338H87.3905ZM82.7287 7.05505C81.98 7.05505 81.4221 7.33659 81.0548 7.89943C80.6876 8.46251 80.5038 9.314 80.5038 10.4541C80.5038 11.5945 80.698 12.4424 81.0866 12.9984C81.4751 13.5541 82.0718 13.8321 82.8772 13.8321C83.5553 13.8321 84.205 13.6325 84.8266 13.2335V7.58948C84.2193 7.23312 83.5198 7.05505 82.7287 7.05505ZM72.7699 15.9485C72.5862 15.9485 72.4519 15.9059 72.3671 15.8204C72.2824 15.7347 72.24 15.5995 72.24 15.4141V5.55856C72.24 5.35895 72.2824 5.21996 72.3671 5.14158C72.4519 5.06321 72.5862 5.0239 72.7699 5.0239H74.8042C75.0019 5.0239 75.1397 5.06321 75.2173 5.14158C75.295 5.21996 75.3338 5.35895 75.3338 5.55856V15.4141C75.3338 15.5995 75.295 15.7347 75.2173 15.8204C75.1397 15.9059 75.0019 15.9485 74.8042 15.9485H72.7699ZM73.7869 3.33514C73.2501 3.33514 72.8192 3.18549 72.4943 2.88619C72.1694 2.58689 72.007 2.18057 72.007 1.66745C72.007 1.15457 72.1694 0.748245 72.4943 0.448947C72.8192 0.149649 73.2501 0 73.7869 0C74.3237 0 74.7547 0.149649 75.0795 0.448947C75.4044 0.748245 75.5668 1.15457 75.5668 1.66745C75.5668 2.18057 75.4044 2.58689 75.0795 2.88619C74.7547 3.18549 74.3237 3.33514 73.7869 3.33514ZM64.3638 15.9485C64.2224 15.9485 64.1059 15.9308 64.014 15.8952C63.9226 15.8598 63.8422 15.8007 63.781 15.724C63.7173 15.6457 63.6574 15.5353 63.6008 15.3928L59.9773 5.87917C59.9402 5.78006 59.9049 5.68027 59.8715 5.57987C59.845 5.50424 59.8307 5.42487 59.8291 5.34474C59.8291 5.13093 59.9704 5.0239 60.2529 5.0239H62.3719C62.5978 5.0239 62.7638 5.06676 62.8699 5.15224C62.9757 5.23772 63.0569 5.38026 63.1135 5.57987L65.296 13.148L67.5211 5.57987C67.5774 5.38026 67.6586 5.23772 67.7647 5.15224C67.8706 5.06676 68.0366 5.0239 68.2627 5.0239H70.318C70.6007 5.0239 70.7418 5.13093 70.7418 5.34474C70.7418 5.41602 70.7279 5.49439 70.6995 5.57987C70.6713 5.66535 70.636 5.76504 70.5936 5.87917L66.9701 15.3928C66.9135 15.5353 66.8536 15.6457 66.7899 15.724C66.7312 15.7988 66.6548 15.8576 66.5675 15.8952C66.4828 15.9308 66.3627 15.9485 66.2071 15.9485H64.3638ZM50.8421 4.70471C52.1619 4.70471 53.1948 5.02556 53.939 5.66725C54.683 6.30894 55.0562 7.16516 55.0562 8.23401C55.0562 9.30452 54.6543 10.1139 53.8547 10.6618C53.0529 11.2116 51.8714 11.4856 50.3112 11.4856C49.5026 11.4856 48.7995 11.4079 48.2043 11.2511C48.2886 12.2066 48.5772 12.8914 49.0669 13.3041C49.5563 13.717 50.297 13.9242 51.2903 13.9242C51.6867 13.9242 52.0741 13.8989 52.4506 13.8485C52.8254 13.7999 53.347 13.6882 54.0143 13.5186C54.0557 13.5043 54.0982 13.4934 54.1415 13.4862C54.1846 13.4791 54.2186 13.4753 54.2473 13.4753C54.4893 13.4753 54.6096 13.6394 54.6096 13.9676V14.9516C54.6096 15.1787 54.5771 15.339 54.5144 15.4328C54.45 15.5247 54.3261 15.6078 54.1415 15.6779C53.105 16.0764 52.0059 16.2765 50.8421 16.2765C49.083 16.2765 47.7326 15.7934 46.7895 14.8219C45.8461 13.852 45.3747 12.4625 45.3747 10.6509C45.3747 8.79804 45.857 7.34346 46.8217 6.28905C47.7863 5.23274 49.1261 4.70471 50.8421 4.70471ZM50.6088 6.86586C49.2461 6.86586 48.4588 7.70764 48.2474 9.38929C48.814 9.50461 49.4453 9.56049 50.1409 9.56049C50.8636 9.56049 51.389 9.45062 51.7153 9.22875C52.0416 9.00901 52.2048 8.67017 52.2048 8.21412C52.2048 7.31457 51.6722 6.86586 50.6088 6.86586ZM29.8405 6.07452C30.5919 5.57514 31.2698 5.22185 31.8722 5.01632C32.4716 4.80941 33.1013 4.70402 33.7354 4.70447C35.0122 4.70447 35.9122 5.16242 36.4376 6.07452C37.1603 5.58958 37.8418 5.23985 38.4802 5.02721C39.1175 4.81259 39.7856 4.70358 40.458 4.70447C41.4514 4.70447 42.2207 4.98388 42.7677 5.53915C43.3127 6.09607 43.5872 6.87296 43.5872 7.87149V15.4219C43.5872 15.6075 43.5476 15.7427 43.4707 15.8275C43.3916 15.9139 43.2535 15.9554 43.0546 15.9554H41.0121C40.8274 15.9554 40.6929 15.9139 40.6086 15.8275C40.5227 15.7427 40.4796 15.6075 40.4796 15.4219V8.55628C40.4796 7.58664 40.0474 7.1017 39.1813 7.1017C38.4155 7.1017 37.6426 7.28568 36.8627 7.65696V15.4219C36.8627 15.6075 36.8231 15.7427 36.7462 15.8275C36.6673 15.9139 36.529 15.9554 36.3301 15.9554H34.2876C34.1029 15.9554 33.9684 15.9139 33.8841 15.8275C33.7982 15.7427 33.757 15.6075 33.757 15.4219V8.55628C33.757 7.58664 33.323 7.1017 32.4587 7.1017C31.6643 7.1017 30.8843 7.29279 30.1166 7.67851V15.4219C30.1166 15.6075 30.0773 15.7427 30.0001 15.8275C29.9213 15.9139 29.7832 15.9554 29.586 15.9554H27.5416C27.3588 15.9554 27.2224 15.9139 27.1383 15.8275C27.054 15.7427 27.0109 15.6075 27.0109 15.4219V5.56069C27.0109 5.36061 27.054 5.22185 27.1383 5.14442C27.2224 5.0651 27.3588 5.02721 27.5416 5.02721H29.0748C29.4013 5.02721 29.5985 5.18397 29.6703 5.49771L29.8405 6.07452ZM21.2693 5.56117C21.2693 5.36108 21.3124 5.22233 21.3967 5.14466C21.4829 5.06534 21.6174 5.02579 21.8021 5.02579H23.8444C24.0435 5.02579 24.1816 5.06534 24.2588 5.14466C24.3376 5.22233 24.3772 5.36108 24.3772 5.56117V15.4205C24.3772 15.6061 24.3376 15.743 24.2588 15.8278C24.1816 15.9125 24.0435 15.9559 23.8444 15.9559H21.8021C21.6174 15.9559 21.4829 15.9125 21.3967 15.8278C21.3124 15.743 21.2693 15.6061 21.2693 15.4205V5.56117ZM22.8224 3.33679C22.2825 3.33679 21.8504 3.18715 21.5241 2.88808C21.1978 2.58713 21.0363 2.18151 21.0363 1.66769C21.0363 1.1541 21.1978 0.748482 21.5241 0.449421C21.8504 0.150123 22.2825 0.000473573 22.8224 0.000473573C23.3621 0.000473573 23.7942 0.150123 24.1207 0.449421C24.447 0.748482 24.6102 1.1541 24.6102 1.66769C24.6102 2.18151 24.447 2.58713 24.1207 2.88808C23.7942 3.18715 23.3621 3.33679 22.8224 3.33679ZM15.7027 6.65181C16.2694 6.02456 16.8054 5.5794 17.3093 5.31444C17.8045 5.0533 18.3563 4.91776 18.9162 4.91971H19.2138C19.4127 4.91971 19.5545 4.95949 19.6388 5.03692C19.7248 5.11625 19.766 5.255 19.766 5.45319V7.2504C19.766 7.43604 19.7283 7.57125 19.6495 7.65767C19.5723 7.74244 19.4342 7.78554 19.2353 7.78554C19.1349 7.78554 19.0076 7.77844 18.8515 7.76399C18.6535 7.74798 18.4549 7.74079 18.2562 7.74244C17.9297 7.74244 17.5336 7.78933 17.0638 7.8812C16.5956 7.97497 16.1993 8.09194 15.873 8.23449V15.4207C15.873 15.6064 15.8337 15.7416 15.7565 15.8282C15.6776 15.9128 15.5396 15.9561 15.3404 15.9561H13.2979C13.1132 15.9561 12.9787 15.9128 12.8944 15.8282C12.8085 15.7416 12.7654 15.6064 12.7654 15.4207V5.5614C12.7654 5.36132 12.8085 5.22256 12.8944 5.14324C12.9787 5.06581 13.1132 5.02603 13.2979 5.02603H14.8295C15.1557 5.02603 15.3549 5.18302 15.4266 5.49652L15.7027 6.65181ZM6.21516 4.70613C7.59042 4.70613 8.67892 5.21262 9.48045 6.22393C10.282 7.2369 10.6838 8.60482 10.6838 10.3317C10.6838 11.514 10.4847 12.5485 10.0883 13.4317C9.69024 14.3168 9.1506 14.9981 8.47079 15.474C7.78955 15.9535 7.00934 16.1912 6.12897 16.1912C5.5479 16.1912 4.99382 16.0993 4.47028 15.9137C3.94485 15.7281 3.49827 15.4721 3.12889 15.1442V19.8268C3.12889 20.0269 3.08958 20.1657 3.01239 20.245C2.93354 20.3224 2.79549 20.3622 2.59635 20.3622H0.554071C0.369377 20.3622 0.234883 20.3224 0.150587 20.245C0.0643964 20.1657 0.0213013 20.0269 0.0213013 19.8268V5.56046C0.0213013 5.36227 0.0643964 5.22351 0.150587 5.14419C0.234883 5.06486 0.369377 5.02698 0.554071 5.02698H2.08703C2.41355 5.02698 2.6108 5.18373 2.68254 5.49747L2.83125 6.0525C3.25628 5.63978 3.77105 5.31183 4.37344 5.06841C4.97606 4.82689 5.59099 4.70613 6.21516 4.70613ZM5.2145 7.05837C4.47739 7.05837 3.78171 7.25111 3.12889 7.63518V13.2605C3.75306 13.6462 4.44873 13.8392 5.2145 13.8392C6.00892 13.8392 6.59355 13.5688 6.97004 13.0263C7.34653 12.4836 7.53477 11.6293 7.53477 10.4596C7.53477 9.2754 7.35008 8.41373 6.98069 7.87126C6.61131 7.32878 6.02313 7.05837 5.2145 7.05837Z" fill="white"/>
</g>
<defs>
<clipPath id="clip0_1_22">
<rect width="112" height="34.5708" fill="white"/>
</clipPath>
</defs>
</svg>
